<svg
   id="Layer_1"
   viewBox="0 0 486.81671 384.61014"
   version="1.1"
   width="486.81671"
   height="384.61014"
   sodipodi:docname="g19.svg"
   xmlns:inkscape="http://www.inkscape.org/namespaces/inkscape"
   xmlns:sodipodi="http://sodipodi.sourceforge.net/DTD/sodipodi-0.dtd"
   xmlns="http://www.w3.org/2000/svg"
   xmlns:svg="http://www.w3.org/2000/svg">
  <sodipodi:namedview
     id="namedview1"
     pagecolor="#ffffff"
     bordercolor="#000000"
     borderopacity="0.25"
     inkscape:showpageshadow="2"
     inkscape:pageopacity="0.0"
     inkscape:pagecheckerboard="0"
     inkscape:deskcolor="#d1d1d1">
    <inkscape:page
       x="0"
       y="0"
       width="486.81671"
       height="384.61014"
       id="page2"
       margin="0"
       bleed="0" />
  </sodipodi:namedview>
  <defs
     id="defs1">
    <style
       id="style1">.cls-1{fill:none;stroke:#000;stroke-miterlimit:10;}.cls-2{fill:#fff;stroke-width:0px;}</style>
  </defs>
  <path
     style="fill:#ffffff;stroke-width:1.16683"
     d="m 56.671637,379.62346 c 0,-0.40843 5.0599,-8.74159 11.2443,-18.51816 37.705403,-59.60656 67.539103,-118.92689 97.257403,-193.38373 14.7278,-36.89924 20.4609,-56.89978 23.5015,-81.987849 0.772,-6.36945 1.9726,-11.7757 2.6681,-12.0139 0.6955,-0.23819 19.1452,-0.58201 40.9994,-0.76405 l 39.7349,-0.33097 -9.5292,14.58539 c -32.9524,50.437499 -52.9404,103.168589 -60.5942,159.855929 -0.9965,7.38021 -2.0767,14.26884 -2.4005,15.30808 -0.6405,2.05568 -54.9718,47.38986 -102.903003,85.86266 -16.5334,13.27073 -32.2922,25.92874 -35.0197,28.1289 -2.7275,2.20015 -4.959,3.66611 -4.959,3.2577 z"
     id="path4" />
  <path
     style="fill:#ffffff;stroke-width:1.16683"
     d="m 340.69724,80.454551 c -1.1383,-6.4039 -4.4163,-11.06337 -10.0543,-14.29177 l -5.0166,-2.87264 -162.1896,-0.32457 -162.1896032,-0.32458 22.1698002,-9.68016 c 29.9672,-13.08479 55.0092,-24.99391 67.6762,-32.18446 5.7758,-3.27871 12.710603,-7.09357 15.410703,-8.47747 l 4.9092,-2.5161999 17.844,3.6587299 c 36.4835,7.48056 55.25,8.98382 111.1905,8.90678 52.4632,-0.0722 124.7652,-4.21843 161.9076,-9.28465 17.4303,-2.3775 72.735,-11.8500599 77.7991,-13.32538996 2.2036,-0.642 4.2012,-0.97268994 4.439,-0.73487 1.6681,1.66809 -91.8547,58.03446996 -135.2944,81.54218996 l -7.832,4.23832 z"
     id="path16" />
  <path
     style="fill:#ffffff;stroke-width:1.16683"
     d="m 340.63994,79.962831 c -0.9922,-6.35985 -8.2527,-14.07042 -15.0175,-15.94844 -3.3096,-0.91878 -51.0731,-1.30138 -164.5194,-1.31782 L 1.2471368,62.673371 24.000337,52.747711 c 22.8973,-9.98852 65.1263,-30.55046 79.498003,-38.70871 l 7.7378,-4.3924899 9.7646,2.1106699 c 33.4633,7.23323 57.2535,9.84652 99.0273,10.87786 42.1693,1.04111 134.3362,-3.65839 177.3584,-9.04333 19.2786,-2.41303 75.1913,-11.7927899 82.769,-13.88509996 2.2158,-0.61182 4.2181,-0.92306994 4.4495,-0.69167 1.6321,1.63213 -87.1123,55.16881996 -135.3293,81.63981996 l -7.855,4.31242 z"
     id="path17" />
  <g
     id="g9"
     transform="translate(-6.0911941,-4.0540571)">
    <path
       style="fill:#ffffff;stroke-width:0.57751"
       d="m 59.194771,388.43436 c 0,-0.12641 3.336615,-5.38897 7.414699,-11.69458 13.918057,-21.52033 28.574758,-46.28615 42.50068,-71.81452 7.82716,-14.34839 27.01326,-52.50048 33.3984,-66.41365 8.12079,-17.69512 24.00595,-55.5615 33.19082,-79.11886 9.96766,-25.56507 15.9827,-49.62364 18.37877,-73.510162 0.68413,-6.820188 -3.80184,-6.119413 42.70094,-6.670527 22.23414,-0.263502 40.48363,-0.442619 40.55443,-0.39804 0.0708,0.04458 -2.92772,4.744268 -6.66341,10.443751 -10.06181,15.351188 -13.94919,21.657578 -19.2363,31.206498 -17.33004,31.29936 -32.28665,70.92995 -39.7078,105.21393 -2.00493,9.2623 -2.96787,15.27875 -4.94797,30.91514 -0.97416,7.6927 -1.78382,12.0206 -2.47163,13.21166 -0.90155,1.56117 -44.74322,38.32061 -79.853,66.95347 -18.19165,14.83571 -64.571126,51.90573 -64.940915,51.90573 -0.174743,0 -0.317714,-0.10343 -0.317714,-0.22984 z"
       id="path7" />
    <path
       style="fill:#ffffff;stroke-width:0.57751"
       d="m 241.68792,166.09831 c 0,-0.6416 4.99186,-14.58824 6.74091,-18.83327 5.09501,-12.36583 13.95478,-27.84371 21.02223,-36.7255 4.77661,-6.00285 2.28883,-5.66937 38.7184,-5.1901 23.28268,0.30631 32.16494,0.24016 33.80367,-0.25176 1.22255,-0.36699 26.91136,-14.51253 57.08625,-31.434535 30.1749,-16.922004 54.94502,-30.700085 55.04471,-30.617958 0.0997,0.08213 -2.46255,3.359562 -5.69387,7.283188 -17.8054,21.62019 -34.07238,46.280421 -52.51518,79.611365 -3.60293,6.51143 -7.95603,14.37847 -9.67358,17.48231 -3.887,7.02435 -4.90857,7.79708 -9.00006,6.80769 -17.08276,-4.1309 -26.27433,-5.54855 -42.16403,-6.5031 -11.66955,-0.70104 -30.33274,-0.11034 -41.68231,1.31928 -13.77785,1.73548 -28.49151,6.23798 -42.3665,12.9645 -8.93505,4.33165 -9.32064,4.50077 -9.32064,4.08789 z"
       id="path8" />
    <path
       style="fill:#ffffff;stroke-width:0.57751"
       d="m 345.41952,90.759392 c 0.17598,-0.8799 0.0372,-3.144311 -0.30835,-5.032018 -1.23145,-6.726986 -6.69583,-12.33448 -14.31205,-14.686892 -3.68139,-1.137065 -5.25665,-1.161777 -74.06093,-1.161777 -38.66476,0 -110.87772,-0.172953 -160.473274,-0.384333 L 6.0911941,69.110033 17.194591,64.948318 C 57.547226,49.82355 88.663654,34.753604 105.24894,22.302865 c 3.09814,-2.325802 6.28267,-4.573295 7.07675,-4.99443 2.46659,-1.308143 7.93657,-0.775595 19.92409,1.939777 17.80418,4.032941 29.9188,5.839846 50.82088,7.579974 47.53688,3.957514 87.1752,3.251805 177.66494,-3.163098 25.09928,-1.779311 37.30147,-3.010355 54.1302,-5.46104 21.25399,-3.095114 63.49895,-10.5497313 71.96185,-12.6985101 3.16902,-0.8046325 5.89775,-1.4577782 6.06386,-1.4514347 0.8952,0.034188 -35.06262,22.9603948 -56.87149,36.2604688 -24.16373,14.736174 -60.27109,35.45485 -87.04095,49.944742 l -3.87952,2.099896 z"
       id="path9" />
  </g>
</svg>